<svg width="259" height="213" viewBox="0 0 259 213" fill="none" xmlns="http://www.w3.org/2000/svg">
<path d="M130.321 0C101.087 0 77.3262 23.7605 77.3262 52.9812C77.3262 62.9212 80.0767 72.2075 84.8424 80.1595C86.9257 79.6148 89.009 79.1655 91.0787 78.7706C86.204 71.3769 83.3718 62.5127 83.3718 52.9676C83.3718 27.0148 104.355 6.03204 130.307 6.03204C156.26 6.03204 177.243 27.0012 177.243 52.9676C177.243 62.499 174.397 71.3633 169.536 78.7706C171.619 79.1655 173.703 79.6284 175.786 80.1595C180.552 72.2075 183.302 62.9075 183.302 52.9812C183.302 23.7605 159.542 0 130.321 0ZM105.607 83.264C93.1484 83.3048 80.7303 86.4638 68.4211 92.632L66.7463 93.4626V104.451C68.6798 103.648 70.7223 103.157 72.8056 103.008V97.3024C83.8212 92.0465 94.7415 89.3505 105.635 89.3096L105.607 83.264ZM105.621 83.264V89.3233C112.824 89.296 120.027 90.5487 127.285 92.7954C127.285 107.283 127.285 121.771 127.285 136.259H133.344C133.344 121.771 133.344 107.283 133.344 92.7954C140.588 90.5487 147.804 89.296 155.007 89.3233V83.264C146.756 83.2368 138.504 84.5984 130.307 87.2672C122.11 84.5984 113.859 83.2368 105.607 83.264H105.621ZM155.021 83.264V89.3233C165.914 89.3641 176.834 92.0601 187.85 97.3161V103.008C189.933 103.171 191.976 103.661 193.909 104.478V93.4762L192.235 92.6457C179.925 86.4774 167.494 83.3184 155.035 83.2776L155.021 83.264Z" fill="#6148FF"/>
<path fill-rule="evenodd" clip-rule="evenodd" d="M184.979 108.999C177.491 108.999 171.35 115.14 171.35 122.629C171.35 130.118 177.491 136.259 184.979 136.259C192.468 136.259 198.609 130.118 198.609 122.629C198.609 115.14 192.468 108.999 184.979 108.999ZM192.55 122.629C192.55 118.408 189.201 115.058 184.979 115.058C180.758 115.058 177.409 118.408 177.409 122.629C177.409 126.85 180.758 130.2 184.979 130.2C189.201 130.2 192.55 126.85 192.55 122.629Z" fill="black"/>
<path fill-rule="evenodd" clip-rule="evenodd" d="M72.9578 108.999C65.4688 108.999 59.3278 115.14 59.3278 122.629C59.3278 130.118 65.4688 136.259 72.9578 136.259C80.4468 136.259 86.5878 130.118 86.5878 122.629C86.5741 115.14 80.4468 108.999 72.9578 108.999ZM80.5285 122.629C80.5285 118.408 77.1789 115.058 72.9578 115.058C68.7367 115.058 65.3871 118.408 65.3871 122.629C65.3871 126.85 68.7367 130.2 72.9578 130.2C77.1789 130.2 80.5285 126.85 80.5285 122.629Z" fill="black"/>
<path d="M104.586 61.3145C104.586 57.5428 107.636 54.5063 111.394 54.5063C115.166 54.5063 118.202 57.5564 118.202 61.3145C118.202 65.0863 115.152 68.1227 111.394 68.1227C107.623 68.1227 104.586 65.0726 104.586 61.3145Z" fill="black"/>
<path d="M142.44 61.3145C142.44 57.5428 145.49 54.5063 149.248 54.5063C153.006 54.5063 156.056 57.5564 156.056 61.3145C156.056 65.0863 153.006 68.1227 149.248 68.1227C145.476 68.1227 142.44 65.0726 142.44 61.3145Z" fill="black"/>
<path d="M10.7314 186.33H22.48V192H3.5801V156.346H10.7314V186.33ZM53.0443 177.238C53.0443 178.259 52.9762 179.179 52.84 179.996H32.1523C32.3225 182.039 33.0377 183.64 34.2977 184.798C35.5577 185.955 37.1071 186.534 38.946 186.534C41.6022 186.534 43.4922 185.394 44.616 183.112H52.3292C51.5119 185.836 49.9454 188.084 47.6297 189.855C45.3141 191.591 42.4706 192.46 39.0993 192.46C36.3749 192.46 33.9231 191.864 31.7436 190.672C29.5982 189.446 27.9126 187.726 26.6866 185.513C25.4947 183.299 24.8988 180.745 24.8988 177.851C24.8988 174.922 25.4947 172.351 26.6866 170.137C27.8785 167.924 29.5471 166.221 31.6925 165.029C33.8379 163.837 36.3068 163.242 39.0993 163.242C41.7895 163.242 44.1903 163.82 46.3016 164.978C48.447 166.136 50.0987 167.788 51.2565 169.933C52.4484 172.044 53.0443 174.479 53.0443 177.238ZM45.6376 175.194C45.6035 173.356 44.9395 171.891 43.6454 170.801C42.3514 169.678 40.7679 169.116 38.8949 169.116C37.1241 169.116 35.6258 169.661 34.3998 170.75C33.2079 171.806 32.4758 173.287 32.2033 175.194H45.6376ZM56.1375 177.748C56.1375 174.888 56.6994 172.351 57.8232 170.137C58.981 167.924 60.5305 166.221 62.4715 165.029C64.4467 163.837 66.6431 163.242 69.061 163.242C71.1723 163.242 73.0112 163.667 74.5777 164.519C76.1782 165.37 77.4553 166.443 78.4088 167.737V163.701H85.6112V192H78.4088V187.862C77.4893 189.191 76.2123 190.297 74.5777 191.183C72.9772 192.034 71.1212 192.46 69.0099 192.46C66.6261 192.46 64.4467 191.847 62.4715 190.621C60.5305 189.395 58.981 187.675 57.8232 185.462C56.6994 183.214 56.1375 180.643 56.1375 177.748ZM78.4088 177.851C78.4088 176.114 78.0682 174.633 77.3871 173.407C76.7061 172.147 75.7866 171.193 74.6288 170.546C73.471 169.865 72.228 169.524 70.8999 169.524C69.5718 169.524 68.3458 169.848 67.2221 170.495C66.0983 171.142 65.1788 172.096 64.4637 173.356C63.7826 174.581 63.4421 176.046 63.4421 177.748C63.4421 179.451 63.7826 180.95 64.4637 182.244C65.1788 183.504 66.0983 184.474 67.2221 185.155C68.3799 185.836 69.6058 186.177 70.8999 186.177C72.228 186.177 73.471 185.853 74.6288 185.206C75.7866 184.525 76.7061 183.572 77.3871 182.346C78.0682 181.086 78.4088 179.587 78.4088 177.851ZM99.4593 168.094C100.379 166.596 101.571 165.421 103.035 164.57C104.533 163.718 106.236 163.293 108.143 163.293V170.801H106.253C104.005 170.801 102.303 171.329 101.145 172.385C100.021 173.441 99.4593 175.28 99.4593 177.902V192H92.308V163.701H99.4593V168.094ZM128.354 163.293C131.725 163.293 134.45 164.365 136.527 166.511C138.604 168.622 139.643 171.585 139.643 175.399V192H132.491V176.369C132.491 174.122 131.93 172.402 130.806 171.21C129.682 169.984 128.15 169.371 126.208 169.371C124.233 169.371 122.667 169.984 121.509 171.21C120.385 172.402 119.823 174.122 119.823 176.369V192H112.672V163.701H119.823V167.226C120.777 166 121.986 165.046 123.45 164.365C124.948 163.65 126.583 163.293 128.354 163.293Z" fill="black"/>
<path d="M187.615 156.346V192H180.464V176.829H165.191V192H158.039V156.346H165.191V171.006H180.464V156.346H187.615ZM221.082 163.701V192H213.879V188.424C212.96 189.65 211.751 190.621 210.252 191.336C208.788 192.017 207.188 192.358 205.451 192.358C203.237 192.358 201.279 191.898 199.577 190.978C197.874 190.025 196.529 188.646 195.541 186.841C194.588 185.002 194.111 182.822 194.111 180.302V163.701H201.262V179.281C201.262 181.528 201.824 183.265 202.948 184.491C204.072 185.683 205.604 186.279 207.545 186.279C209.52 186.279 211.07 185.683 212.194 184.491C213.317 183.265 213.879 181.528 213.879 179.281V163.701H221.082ZM235.001 167.839C235.921 166.477 237.181 165.37 238.781 164.519C240.416 163.667 242.272 163.242 244.349 163.242C246.767 163.242 248.946 163.837 250.887 165.029C252.862 166.221 254.412 167.924 255.536 170.137C256.693 172.317 257.272 174.854 257.272 177.748C257.272 180.643 256.693 183.214 255.536 185.462C254.412 187.675 252.862 189.395 250.887 190.621C248.946 191.847 246.767 192.46 244.349 192.46C242.238 192.46 240.382 192.051 238.781 191.234C237.215 190.382 235.955 189.293 235.001 187.965V192H227.85V154.2H235.001V167.839ZM249.968 177.748C249.968 176.046 249.61 174.581 248.895 173.356C248.214 172.096 247.295 171.142 246.137 170.495C245.013 169.848 243.787 169.524 242.459 169.524C241.165 169.524 239.939 169.865 238.781 170.546C237.657 171.193 236.738 172.147 236.023 173.407C235.342 174.667 235.001 176.148 235.001 177.851C235.001 179.553 235.342 181.035 236.023 182.295C236.738 183.555 237.657 184.525 238.781 185.206C239.939 185.853 241.165 186.177 242.459 186.177C243.787 186.177 245.013 185.836 246.137 185.155C247.295 184.474 248.214 183.504 248.895 182.244C249.61 180.984 249.968 179.485 249.968 177.748Z" fill="#6148FF"/>
</svg>
